<svg xmlns="http://www.w3.org/2000/svg" width="512" height="512" viewBox="0 0 512 512">
  <defs>
    <linearGradient id="bg" x1="0" y1="0" x2="0.85" y2="1">
      <stop offset="0%" stop-color="#0E8A87"/>
      <stop offset="46%" stop-color="#00696B"/>
      <stop offset="100%" stop-color="#013B3D"/>
    </linearGradient>
    <radialGradient id="spot" cx="0.24" cy="0.14" r="0.85">
      <stop offset="0%" stop-color="#5BE0D8" stop-opacity="0.45"/>
      <stop offset="100%" stop-color="#5BE0D8" stop-opacity="0"/>
    </radialGradient>
    <radialGradient id="warm" cx="0.86" cy="1.05" r="0.7">
      <stop offset="0%" stop-color="#F5C55A" stop-opacity="0.35"/>
      <stop offset="100%" stop-color="#F5C55A" stop-opacity="0"/>
    </radialGradient>
    <linearGradient id="glass" x1="0" y1="0" x2="0.4" y2="1">
      <stop offset="0%" stop-color="#0F4A48"/>
      <stop offset="100%" stop-color="#0A2E2D"/>
    </linearGradient>
    <filter id="headGlow" x="-120%" y="-120%" width="340%" height="340%">
      <feGaussianBlur stdDeviation="16"/>
    </filter>
    <filter id="drop" x="-30%" y="-20%" width="160%" height="150%">
      <feDropShadow dx="0" dy="16" stdDeviation="18" flood-color="#001412" flood-opacity="0.5"/>
    </filter>
  </defs>

  <rect width="512" height="512" fill="url(#bg)"/>
  <rect width="512" height="512" fill="url(#spot)"/>
  <rect width="512" height="512" fill="url(#warm)"/>

  <!-- Subtle network texture -->
  <g fill="none" stroke="#FFFFFF" stroke-opacity="0.07" stroke-width="5" stroke-linecap="round">
    <path d="M-30 452 C 120 404 250 486 400 436 S 560 414 560 432"/>
    <path d="M-30 500 C 150 452 300 528 470 484"/>
  </g>
  <g fill="#FFFFFF" fill-opacity="0.09">
    <circle cx="150" cy="432" r="8"/>
    <circle cx="352" cy="456" r="8"/>
  </g>

  <!-- Tram front -->
  <g filter="url(#drop)">
    <path d="M120,196 Q120,120 200,120 H312 Q392,120 392,196 V352 Q392,404 340,404 H172 Q120,404 120,352 Z" fill="#F7FEFE"/>
    <!-- Windshield -->
    <rect x="150" y="172" width="212" height="132" rx="34" fill="url(#glass)"/>
    <path d="M170,196 Q176,184 196,184 L246,184 L206,304 L178,304 Q166,304 166,290 Z" fill="#FFFFFF" opacity="0.07"/>
    <!-- Headlight glow -->
    <circle cx="184" cy="344" r="30" fill="#F5C55A" opacity="0.5" filter="url(#headGlow)"/>
    <circle cx="328" cy="344" r="30" fill="#F5C55A" opacity="0.5" filter="url(#headGlow)"/>
    <!-- Headlights -->
    <circle cx="184" cy="344" r="19" fill="#FFD262"/>
    <circle cx="328" cy="344" r="19" fill="#FFD262"/>
    <circle cx="178" cy="338" r="6" fill="#FFFFFF" opacity="0.75"/>
    <circle cx="322" cy="338" r="6" fill="#FFFFFF" opacity="0.75"/>
    <!-- Front grille -->
    <rect x="222" y="366" width="68" height="12" rx="6" fill="#12403E" opacity="0.22"/>
  </g>
</svg>
